<svg width="1544" height="1405" viewBox="0 0 1544 1405" fill="none" xmlns="http://www.w3.org/2000/svg">
<path d="M1435.92 419.744C1428.13 392.012 1416.11 365.409 1400.21 340.713C1384.94 315.021 1365.41 291.623 1342.31 271.341C1308.82 240.969 1269.16 216.812 1225.55 200.213C1137.75 167.423 1039.29 167.423 951.485 200.213C910.257 216.093 872.379 238.378 839.545 266.072L834.72 271.341L771.995 328.419L709.27 271.341L704.445 266.072C671.611 238.378 633.733 216.093 592.505 200.213C504.705 167.423 406.245 167.423 318.445 200.213C274.826 216.812 235.168 240.969 201.68 271.341C155.878 311.895 123.454 363.3 108.075 419.744C99.8934 448.408 95.9983 477.945 96.4952 507.556C96.4952 535.393 100.355 563.142 108.075 590.1C116.165 617.326 127.829 643.566 142.815 668.253C159 693.632 178.792 716.957 201.68 737.625L771.995 1256.6L1342.31 737.625C1365.18 717.165 1384.77 693.719 1400.21 668.253C1431.55 619.527 1447.89 564.015 1447.5 507.556C1448 477.945 1444.1 448.407 1435.92 419.744V419.744ZM1339.42 562.878C1327.86 603.001 1304.89 639.648 1272.83 669.131L770.065 1125.76L267.3 669.131C250.917 654.117 236.653 637.303 224.84 619.078C213.724 601.049 204.979 581.891 198.785 562C193.841 542.112 191.252 521.799 191.065 501.41C191.196 480.437 193.784 459.536 198.785 439.063C204.797 419.115 213.551 399.938 224.84 381.985C236.42 363.544 250.702 346.86 267.3 331.931C292.091 309.675 321.214 291.809 353.185 279.244C417.61 255.791 489.48 255.791 553.905 279.244C585.75 291.274 614.507 308.925 638.825 331.053L770.065 451.356L901.305 331.053C925.606 308.885 954.46 291.282 986.225 279.244C1050.65 255.791 1122.52 255.791 1186.95 279.244C1218.89 291.801 1248.03 309.715 1272.83 331.931C1289.62 346.421 1303.71 363.281 1314.33 381.985C1336.68 417.853 1348.32 458.42 1348.1 499.653C1349.41 520.871 1347.46 542.151 1342.31 562.878H1339.42V562.878Z" fill="#333333"/>
</svg>
